<svg width="56" height="56" viewBox="0 0 56 56" fill="none" xmlns="http://www.w3.org/2000/svg">
<g clip-path="url(#clip0)">
<path d="M22.6006 26.1227C22.6006 26.1227 27.8995 25.7293 27.8995 19.5139C27.8995 13.2991 23.5639 10.2671 18.0716 10.2671H7.96259H7.66564H0V44.9969H7.66564H7.96259H18.0716C18.0716 44.9969 29.1036 45.3459 29.1036 34.7464C29.1042 34.7464 29.5853 26.1227 22.6006 26.1227ZM7.96259 16.4404H16.771H18.0722C18.0722 16.4404 20.529 16.4404 20.529 20.0534C20.529 23.6665 19.0834 24.1902 17.4456 24.1902H7.96259V16.4404ZM17.6057 38.8253H7.96259V29.5434H18.0716C18.0716 29.5434 21.7332 29.4967 21.7332 34.3133C21.7332 38.3296 19.0554 38.785 17.6057 38.8253Z" fill="white"/>
<path d="M50.676 12.313H36.3466V16.5901H50.676V12.313Z" fill="white"/>
<path d="M43.8176 19.104C30.4621 19.104 30.4738 32.4467 30.4738 32.4467C30.4738 32.4467 29.5584 45.7233 43.8182 45.7233C43.8182 45.7233 55.7025 46.4026 55.7025 36.487H49.5906C49.5906 36.487 49.7946 40.2228 44.0222 40.2228C44.0222 40.2228 37.9109 40.6314 37.9109 34.1787H55.9059C55.9059 34.1787 57.8746 19.104 43.8176 19.104ZM49.2504 29.5433H37.8419C37.8419 29.5433 38.5884 24.1901 43.9533 24.1901C49.3187 24.1895 49.2504 29.5433 49.2504 29.5433Z" fill="white"/>
</g>
<defs>
<clipPath id="clip0">
<rect width="56" height="56" fill="white"/>
</clipPath>
</defs>
</svg>
