<svg width="266" height="900" viewBox="0 0 266 900" fill="none" xmlns="http://www.w3.org/2000/svg">
<path fill-rule="evenodd" clip-rule="evenodd" d="M250.087 124.976C250.087 78.1274 212.1 40 164.972 40C117.843 40 79.8558 77.9248 79.8558 124.976C79.8558 159.858 100.982 189.874 131.25 202.853H130.844V699.119C130.844 738.463 98.951 770.304 59.5417 770.304C20.1325 770.304 -11.7605 738.463 -11.7605 699.119L-37.1531 699.322C-37.1531 752.66 6.11581 795.655 59.3386 795.655C112.764 795.655 155.83 752.457 155.83 699.322V209.546C158.674 209.749 161.518 209.951 164.565 209.951C167.431 209.951 170.117 209.772 172.961 209.582H172.966L173.503 209.546V699.322C173.503 761.989 122.515 812.893 59.7448 812.893C-3.02553 812.893 -54.0138 761.989 -54.0138 699.322H-79C-79 775.982 -16.6359 838.244 60.1511 838.244C136.938 838.244 199.302 775.982 199.302 699.322V203.056H198.896C228.961 189.874 250.087 159.858 250.087 124.976ZM164.972 184.398C132.063 184.398 105.451 157.83 105.451 124.976C105.451 92.1211 132.063 65.5535 164.972 65.5535C197.88 65.5535 224.492 92.1211 224.492 124.976C224.695 157.83 197.88 184.398 164.972 184.398Z" fill="white"/>
<path d="M165.784 83C154.002 83 144.048 87.0561 135.516 95.3712C127.188 103.483 122.922 113.421 122.922 125.184C122.922 136.946 127.188 146.884 135.516 154.996C144.048 163.108 154.002 167.367 165.784 167.367C177.566 167.367 187.317 163.311 195.24 154.996C203.162 146.884 207.225 136.946 207.225 125.184C207.225 113.421 203.162 103.483 195.24 95.3712C187.317 87.0561 177.363 83 165.784 83ZM165.784 141.814C154.002 141.814 148.314 136.135 148.314 124.981C148.314 113.826 154.205 108.148 165.784 108.148C176.551 108.148 182.035 113.826 182.035 124.981C182.035 136.135 176.551 141.814 165.784 141.814Z" fill="#E91E63"/>
<mask id="mask0" mask-type="alpha" maskUnits="userSpaceOnUse" x="0" y="0" width="266" height="900">
<rect width="266" height="900" fill="#C4C4C4"/>
</mask>
<g mask="url(#mask0)">
</g>
</svg>
