<svg width="56" height="56" viewBox="0 0 56 56" fill="none" xmlns="http://www.w3.org/2000/svg">
<g clip-path="url(#clip0)">
<path d="M27.9811 13.6025C25.1372 13.6025 22.3572 14.4458 19.9926 16.0258C17.628 17.6058 15.785 19.8515 14.6967 22.4789C13.6084 25.1063 13.3236 27.9974 13.8785 30.7866C14.4333 33.5758 15.8027 36.1379 17.8136 38.1488C19.8246 40.1598 22.3866 41.5292 25.1759 42.084C27.9651 42.6389 30.8562 42.3541 33.4836 41.2658C36.111 40.1775 38.3567 38.3345 39.9367 35.9699C41.5166 33.6053 42.3599 30.8253 42.3599 27.9814C42.3599 26.0932 41.988 24.2234 41.2654 22.4789C40.5428 20.7343 39.4837 19.1492 38.1485 17.814C36.8133 16.4788 35.2281 15.4197 33.4836 14.6971C31.7391 13.9745 29.8693 13.6025 27.9811 13.6025ZM27.9811 37.3211C26.1338 37.3211 24.3281 36.7733 22.7922 35.7471C21.2563 34.7208 20.0592 33.2622 19.3523 31.5556C18.6454 29.849 18.4605 27.9711 18.8209 26.1594C19.1812 24.3476 20.0708 22.6835 21.3769 21.3773C22.6831 20.0711 24.3473 19.1816 26.159 18.8212C27.9707 18.4609 29.8486 18.6458 31.5552 19.3527C33.2618 20.0596 34.7204 21.2567 35.7467 22.7926C36.7729 24.3285 37.3207 26.1342 37.3207 27.9814C37.3207 30.4585 36.3367 32.834 34.5852 34.5856C32.8337 36.3371 30.4581 37.3211 27.9811 37.3211Z" fill="white"/>
<path d="M42.9283 16.4246C44.7802 16.4246 46.2815 14.9234 46.2815 13.0714C46.2815 11.2195 44.7802 9.71826 42.9283 9.71826C41.0764 9.71826 39.5751 11.2195 39.5751 13.0714C39.5751 14.9234 41.0764 16.4246 42.9283 16.4246Z" fill="white"/>
<path d="M54.5223 9.66171C53.8027 7.80322 52.7031 6.11539 51.2938 4.70616C49.8846 3.29693 48.1968 2.19733 46.3383 1.47767C44.1615 0.660419 41.8619 0.218423 39.5372 0.170501C36.544 0.037889 35.5968 0 28 0C20.4032 0 19.4371 0 16.4628 0.170501C14.1381 0.218423 11.8385 0.660419 9.66171 1.47767C7.80322 2.19733 6.11539 3.29693 4.70616 4.70616C3.29693 6.11539 2.19733 7.80322 1.47767 9.66171C0.660419 11.8385 0.218423 14.1381 0.170501 16.4628C0.037889 19.456 0 20.4032 0 28C0 35.5968 0 36.5629 0.170501 39.5372C0.218423 41.8619 0.660419 44.1615 1.47767 46.3383C2.19733 48.1968 3.29693 49.8846 4.70616 51.2938C6.11539 52.7031 7.80322 53.8027 9.66171 54.5223C11.8328 55.372 14.1327 55.846 16.4628 55.9242C19.456 56.0568 20.4032 56.0947 28 56.0947C35.5968 56.0947 36.5629 56.0947 39.5372 55.9242C41.8619 55.8763 44.1615 55.4343 46.3383 54.6171C48.1968 53.8974 49.8846 52.7978 51.2938 51.3886C52.7031 49.9793 53.8027 48.2915 54.5223 46.433C55.3396 44.2562 55.7816 41.9566 55.8295 39.6319C55.9621 36.6387 56 35.6915 56 28.0947C56 20.498 56 19.5318 55.8295 16.5575C55.7923 14.201 55.3502 11.8684 54.5223 9.66171ZM50.7334 39.3099C50.7172 41.1018 50.3903 42.8773 49.7673 44.5575C49.3009 45.7674 48.5863 46.8662 47.6694 47.7831C46.7526 48.7 45.6538 49.4146 44.4438 49.8809C42.7816 50.4975 41.0258 50.8243 39.253 50.8471C36.2977 50.9797 35.4641 51.0176 27.8863 51.0176C20.3085 51.0176 19.5318 51.0176 16.5196 50.8471C14.7468 50.8243 12.9911 50.4975 11.3288 49.8809C10.1148 49.4179 9.01179 48.7046 8.09139 47.7875C7.171 46.8704 6.45383 45.7699 5.98647 44.5575C5.36985 42.8953 5.04305 41.1395 5.0203 39.3667C4.88769 36.4114 4.8498 35.5778 4.8498 28C4.8498 20.4222 4.8498 19.6455 5.0203 16.6333C5.03652 14.8414 5.36342 13.0658 5.98647 11.3857C6.45383 10.1733 7.171 9.07281 8.09139 8.15569C9.01179 7.23856 10.1148 6.5253 11.3288 6.06225C12.9911 5.44563 14.7468 5.11883 16.5196 5.09608C19.475 4.96346 20.3085 4.92558 27.8863 4.92558C35.4641 4.92558 36.2409 4.92558 39.253 5.09608C41.0258 5.11883 42.7816 5.44563 44.4438 6.06225C45.6538 6.52856 46.7526 7.24318 47.6694 8.16006C48.5863 9.07695 49.3009 10.1757 49.7673 11.3857C50.3839 13.0479 50.7107 14.8037 50.7334 16.5765C50.866 19.5318 50.9039 20.3654 50.9039 27.9432C50.9039 35.521 50.9039 36.3356 50.7713 39.3099H50.7334Z" fill="white"/>
</g>
<defs>
<clipPath id="clip0">
<rect width="56" height="56" fill="white"/>
</clipPath>
</defs>
</svg>
