<svg width="100" height="100" viewBox="0 0 100 100" fill="none" xmlns="http://www.w3.org/2000/svg">
<path d="M87.7 23H73.4V16.5C73.4 12.9159 70.4841 10 66.9 10H33.1C29.5159 10 26.6 12.9159 26.6 16.5V39.9H12.3C11.5811 39.9 11 40.4811 11 41.2V54.2C11 54.9189 11.5811 55.5 12.3 55.5H26.6V81.5C26.6 85.0841 29.5159 88 33.1 88H66.9C70.4841 88 73.4 85.0841 73.4 81.5V71.1H82.5C83.2189 71.1 83.8 70.5189 83.8 69.8V50.3C83.8 49.5811 83.2189 49 82.5 49H73.4V38.6H87.7C88.4189 38.6 89 38.0189 89 37.3V24.3C89 23.5811 88.4189 23 87.7 23ZM33.1 12.6H66.9C69.0502 12.6 70.8 14.3498 70.8 16.5H29.2C29.2 14.3498 30.9498 12.6 33.1 12.6ZM13.6 42.5H42.2V52.9H37C36.2811 52.9 35.7 53.4811 35.7 54.2V56.6947L31.3125 53.1847C31.0811 53.0001 30.7964 52.9 30.5 52.9H13.6V42.5ZM66.9 85.4H33.1C30.9498 85.4 29.2 83.6502 29.2 81.5H70.8C70.8 83.6502 69.0502 85.4 66.9 85.4ZM81.2 68.5H61.7C61.4036 68.5 61.1189 68.6001 60.8875 68.7847L56.5 72.2947V69.8C56.5 69.0811 55.9189 68.5 55.2 68.5H50V51.6H81.2V68.5ZM70.8 49H48.7C47.9811 49 47.4 49.5811 47.4 50.3V69.8C47.4 70.5189 47.9811 71.1 48.7 71.1H53.9V75C53.9 75.5005 54.1873 75.9542 54.6358 76.1713C54.8165 76.2584 55.0089 76.3 55.2 76.3C55.4899 76.3 55.7772 76.2038 56.0125 76.0153L62.1563 71.1H70.8V78.9H29.2V55.5H30.0437L36.1875 60.4153C36.4228 60.6038 36.7101 60.7 37 60.7C37.1911 60.7 37.3848 60.6584 37.5642 60.5713C38.0127 60.3542 38.3 59.9005 38.3 59.4V55.5H43.5C44.2189 55.5 44.8 54.9189 44.8 54.2V41.2C44.8 40.4811 44.2189 39.9 43.5 39.9H29.2V19.1H70.8V23H48.7C47.9811 23 47.4 23.5811 47.4 24.3V37.3C47.4 38.0189 47.9811 38.6 48.7 38.6H53.9V42.5C53.9 43.0005 54.1873 43.4542 54.6358 43.6713C54.8165 43.7584 55.0089 43.8 55.2 43.8C55.4899 43.8 55.7772 43.7038 56.0125 43.5153L62.1563 38.6H70.8V49ZM86.4 36H61.7C61.4036 36 61.1189 36.1001 60.8875 36.2847L56.5 39.7947V37.3C56.5 36.5811 55.9189 36 55.2 36H50V25.6H86.4V36Z" fill="#E91E63"/>
<path d="M64.3 29.5H53.9V32.1H64.3V29.5Z" fill="#E91E63"/>
<path d="M82.5 29.5H68.2V32.1H82.5V29.5Z" fill="#E91E63"/>
<path d="M38.3 46.3999H35.7V48.9999H38.3V46.3999Z" fill="#E91E63"/>
<path d="M33.1 46.3999H17.5V48.9999H33.1V46.3999Z" fill="#E91E63"/>
<path d="M65.6 55.5H53.9V58.1H65.6V55.5Z" fill="#E91E63"/>
<path d="M77.3 55.5H68.2V58.1H77.3V55.5Z" fill="#E91E63"/>
<path d="M59.1 62H53.9V64.6H59.1V62Z" fill="#E91E63"/>
<path d="M77.3 62H61.7V64.6H77.3V62Z" fill="#E91E63"/>
<path d="M44.8 29.5H42.2V32.1H44.8V29.5Z" fill="#E91E63"/>
<path d="M39.6 29.5H37V32.1H39.6V29.5Z" fill="#E91E63"/>
<path d="M34.4 29.5H31.8V32.1H34.4V29.5Z" fill="#E91E63"/>
<path d="M44.8 65.8999H42.2V68.4999H44.8V65.8999Z" fill="#E91E63"/>
<path d="M39.6 65.8999H37V68.4999H39.6V65.8999Z" fill="#E91E63"/>
<path d="M34.4 65.8999H31.8V68.4999H34.4V65.8999Z" fill="#E91E63"/>
</svg>
