<svg width="787" height="1000" viewBox="0 0 787 900" fill="none" xmlns="http://www.w3.org/2000/svg">
<path fill-rule="evenodd" clip-rule="evenodd" d="M539.087 292.718C539.087 155.045 427.454 43 288.958 43C150.461 43 38.8287 154.449 38.8287 292.718C38.8287 395.227 100.913 483.432 189.861 521.576H188.667V1979.95C188.667 2095.57 94.9436 2189.14 -20.8681 2189.14C-136.68 2189.14 -230.404 2095.57 -230.404 1979.95L-305.025 1980.55C-305.025 2137.29 -177.871 2263.64 -21.4651 2263.64C135.537 2263.64 262.094 2136.69 262.094 1980.55V541.243C270.452 541.839 278.81 542.435 287.764 542.435C296.191 542.435 304.088 541.907 312.452 541.348L314.031 541.243V1980.55C314.031 2164.7 164.192 2314.3 -20.2713 2314.3C-204.734 2314.3 -354.573 2164.7 -354.573 1980.55H-428C-428 2205.83 -244.731 2388.8 -19.0773 2388.8C206.576 2388.8 389.846 2205.83 389.846 1980.55V522.172H388.651C477.003 483.432 539.087 395.227 539.087 292.718ZM288.958 467.341C192.249 467.341 114.046 389.268 114.046 292.718C114.046 196.169 192.249 118.095 288.958 118.095C385.667 118.095 463.87 196.169 463.87 292.718C464.467 389.268 385.667 467.341 288.958 467.341Z" fill="white"/>
<path d="M291.091 170C256.431 170 227.149 181.923 202.05 206.365C177.549 230.212 165 259.423 165 294C165 328.577 177.549 357.788 202.05 381.635C227.149 405.481 256.431 418 291.091 418C325.752 418 354.436 406.077 377.742 381.635C401.048 357.788 413 328.577 413 294C413 259.423 401.048 230.212 377.742 206.365C354.436 181.923 325.154 170 291.091 170ZM291.091 342.885C256.431 342.885 239.699 326.192 239.699 293.404C239.699 260.615 257.029 243.923 291.091 243.923C322.764 243.923 338.899 260.615 338.899 293.404C338.899 326.192 322.764 342.885 291.091 342.885Z" fill="#E91E63"/>
<mask id="mask0" mask-type="alpha" maskUnits="userSpaceOnUse" x="0" y="0" width="787" height="900">
<rect width="787" height="900" fill="#C4C4C4"/>
</mask>
<g mask="url(#mask0)">
</g>
</svg>
