<svg width="56" height="56" viewBox="0 0 56 56" fill="none" xmlns="http://www.w3.org/2000/svg">
<path d="M50.9343 0H5.06565C2.268 0 0 2.268 0 5.06565V50.9342C0 53.732 2.268 56 5.06565 56H50.9342C53.732 56 56 53.732 56 50.9342V5.06565C56 2.268 53.732 0 50.9343 0ZM17.3288 48.3541C17.3288 49.1683 16.6688 49.8283 15.8546 49.8283H9.57937C8.76517 49.8283 8.10519 49.1683 8.10519 48.3541V22.0486C8.10519 21.2344 8.76517 20.5744 9.57937 20.5744H15.8546C16.6688 20.5744 17.3288 21.2344 17.3288 22.0486V48.3541ZM12.717 18.0947C9.42457 18.0947 6.75548 15.4257 6.75548 12.1332C6.75548 8.84082 9.42457 6.17173 12.717 6.17173C16.0094 6.17173 18.6785 8.84082 18.6785 12.1332C18.6785 15.4257 16.0096 18.0947 12.717 18.0947ZM50.1229 48.4728C50.1229 49.2214 49.516 49.8283 48.7675 49.8283H42.0337C41.2852 49.8283 40.6783 49.2214 40.6783 48.4728V36.1341C40.6783 34.2934 41.2182 28.0682 35.868 28.0682C31.718 28.0682 30.8762 32.3292 30.7072 34.2414V48.4728C30.7072 49.2214 30.1004 49.8283 29.3518 49.8283H22.8391C22.0905 49.8283 21.4836 49.2214 21.4836 48.4728V21.9299C21.4836 21.1813 22.0905 20.5744 22.8391 20.5744H29.3518C30.1003 20.5744 30.7072 21.1813 30.7072 21.9299V24.2248C32.246 21.9155 34.5329 20.133 39.4022 20.133C50.1847 20.133 50.1229 30.2066 50.1229 35.7415V48.4728Z" fill="white"/>
</svg>
