<svg xmlns="http://www.w3.org/2000/svg" width="1440" height="900" viewBox="0 0 1440 900" fill="none">
<path d="M431.253 244.753C419.471 244.753 409.517 248.809 401.392 257.124C393.266 265.237 389 275.174 389 286.937V510.226H473.303V286.734C473.303 274.971 469.24 265.034 460.912 256.922C452.786 248.809 442.832 244.753 431.253 244.753ZM448.114 484.876H414.393V286.734C414.393 275.58 420.08 269.901 431.253 269.901C442.426 269.901 448.114 275.58 448.114 286.734V484.876Z" fill="white"/>
<path d="M1089.7 498.261C1097.82 490.351 1102.09 480.414 1102.09 468.854V286.937C1102.09 275.174 1098.03 265.237 1089.7 257.124C1081.57 249.012 1071.62 244.753 1059.84 244.753H1017.58V510.226H1059.84C1071.62 510.226 1081.57 506.17 1089.7 498.261ZM1042.98 269.901H1059.84C1071.01 269.901 1076.7 275.58 1076.7 286.734V468.651C1076.7 479.4 1071.01 484.876 1059.84 484.876H1042.98V269.901Z" fill="white"/>
<path d="M868.073 621.364C868.073 632.721 858.931 641.847 847.555 641.847C836.179 641.847 827.038 632.721 827.038 621.364V328.918C827.038 305.595 818.913 285.72 802.458 269.293C786.004 252.866 766.096 244.753 742.735 244.753C723.437 244.753 706.576 250.229 692.153 260.978C677.121 250.229 660.26 244.753 641.571 244.753C625.117 244.753 611.1 248.404 599.318 255.908V287.545C610.084 275.783 624.101 270.104 641.571 270.104C663.51 270.104 680.371 279.636 692.153 298.902C703.935 279.636 720.796 270.104 742.735 270.104C759.189 270.104 773.003 275.783 784.582 287.343C795.958 298.902 801.849 312.693 801.849 329.121V621.567C801.849 646.917 822.366 667.401 847.758 667.401C872.135 667.401 892.043 648.337 893.465 624.203V395.438H911.138V621.364C911.138 656.044 882.902 684.234 848.165 684.234C813.428 684.234 785.191 656.044 785.191 621.364V328.918C785.191 317.155 781.128 307.217 772.8 299.105C764.674 290.993 754.72 286.734 742.938 286.734C731.156 286.734 721.202 290.79 713.076 299.105C704.951 307.217 700.685 317.155 700.685 328.918V539.836C700.685 546.731 706.373 552.41 713.28 552.41C720.186 552.41 725.874 546.731 725.874 539.836V328.918C725.874 317.763 731.562 312.085 742.735 312.085C753.908 312.085 759.596 317.763 759.596 328.918V621.567C759.596 670.24 799.208 709.787 847.962 709.787C895.903 709.787 934.703 671.66 936.125 624.203V370.29H867.869V621.364H868.073Z" fill="white"/>
<path d="M641.835 286.734C630.053 286.734 620.099 290.79 611.974 299.105C603.848 307.217 599.582 317.155 599.582 328.918V621.567C599.582 656.246 571.549 684.234 536.812 684.234C502.075 684.234 474.041 656.246 474.041 621.567V527.667H389.738V709.99C389.738 773.063 338.547 824.373 275.167 824.373C211.787 824.373 160.596 773.265 160.596 709.99V287.748C160.596 271.118 166.487 257.124 178.269 245.565C190.051 234.005 204.271 228.123 220.928 228.123C237.586 228.123 251.603 234.005 263.182 245.565C274.761 257.124 280.652 271.321 280.652 287.748V489.743C280.652 494.61 276.589 498.666 271.713 498.666C266.838 498.666 262.775 494.61 262.775 489.743V287.748C262.775 275.985 258.712 265.845 250.79 257.53C242.664 249.215 232.711 245.159 220.928 245.159C209.146 245.159 198.989 249.215 190.457 257.53C181.925 265.845 177.659 275.783 177.659 287.748V709.584V709.99C177.863 763.531 221.335 806.931 274.964 806.931C328.593 806.931 372.065 763.531 372.268 709.99V286.734C372.268 270.307 378.362 256.516 389.941 244.956C401.317 233.599 415.334 227.718 431.788 227.718C448.242 227.718 462.056 233.396 473.635 244.956C485.011 256.516 490.902 270.307 490.902 286.734V621.567C491.918 645.903 512.029 667.198 536.405 667.198C561.595 667.198 582.112 646.715 582.112 621.567C582.112 621.567 582.112 262.397 582.112 261.992C582.112 255.096 576.424 249.418 569.517 249.418C562.61 249.418 556.923 255.096 556.923 261.992C556.923 262.195 556.923 621.567 556.923 621.567C556.923 632.721 547.781 641.847 536.608 641.847C525.436 641.847 516.294 630.693 516.294 619.539V286.734C516.294 263.411 508.169 243.536 491.714 227.109C475.26 210.682 455.352 202.57 431.991 202.57C408.63 202.57 388.519 210.885 371.862 227.515C355.204 244.145 347.282 263.817 347.282 286.734L346.875 709.99C346.875 749.537 314.779 781.783 274.964 781.783C235.148 781.783 203.052 749.74 203.052 709.99V287.748C203.052 276.391 208.943 270.712 220.725 270.712C231.695 270.712 236.976 276.391 236.976 287.748L237.383 489.743C237.383 508.604 252.821 524.017 271.713 524.017C290.606 524.017 306.044 508.604 306.044 489.743V287.748C306.044 264.02 297.715 243.942 281.261 227.515C264.807 210.885 244.696 202.57 220.928 202.57C197.161 202.57 177.05 210.885 160.189 227.312C143.329 243.942 135 264.02 135 287.748V709.99C135.203 787.056 197.77 849.52 275.167 849.52C352.563 849.52 415.131 787.056 415.334 709.99V709.584V553.018H448.852V621.567C448.852 670.24 488.261 709.584 537.015 709.584C585.768 709.584 625.178 670.24 625.178 621.567V328.918C625.178 317.763 630.866 312.085 642.038 312.085C653.211 312.085 658.899 317.763 658.899 328.918V539.836C658.899 546.731 664.587 552.41 671.494 552.41C678.4 552.41 684.088 546.731 684.088 539.836V328.918C684.088 317.155 679.822 307.217 671.494 299.105C662.962 290.993 653.211 286.734 641.835 286.734Z" fill="white"/>
<path d="M1220.32 94C1208.54 94 1198.58 98.0561 1190.05 106.371C1181.72 114.483 1177.46 124.421 1177.46 136.184C1177.46 147.946 1181.72 157.884 1190.05 165.996C1198.58 174.108 1208.54 178.367 1220.32 178.367C1232.1 178.367 1241.85 174.311 1249.77 165.996C1257.7 157.884 1261.76 147.946 1261.76 136.184C1261.76 124.421 1257.7 114.483 1249.77 106.371C1241.85 98.0561 1231.9 94 1220.32 94ZM1220.32 152.814C1208.54 152.814 1202.85 147.135 1202.85 135.981C1202.85 124.826 1208.74 119.148 1220.32 119.148C1231.08 119.148 1236.57 124.826 1236.57 135.981C1236.57 147.135 1231.08 152.814 1220.32 152.814Z" fill="#E91E63"/>
<path d="M1304.62 135.976C1304.62 89.1275 1266.63 51 1219.51 51C1172.38 51 1134.39 88.9247 1134.39 135.976C1134.39 170.858 1155.52 200.874 1185.78 213.853H1185.38C1185.38 374.678 1185.38 710.119 1185.38 710.119C1185.38 749.463 1153.48 781.304 1114.08 781.304C1074.67 781.304 1042.77 749.463 1042.77 710.119V552.945H1059.63C1082.59 552.945 1102.5 544.629 1119.36 527.999C1136.22 511.369 1144.75 491.697 1144.75 468.78V286.863C1144.75 263.541 1136.42 243.666 1119.76 227.238C1103.11 210.811 1082.99 202.699 1059.63 202.699L867.463 202.902V352.978H934.499V243.463H910.122V326.613H889.808V228.05L1059.63 227.847C1076.09 227.847 1089.9 233.525 1101.48 245.085C1112.86 256.645 1118.75 270.436 1118.75 286.863V468.78C1118.75 485.207 1113.06 498.998 1101.48 510.558C1089.9 522.118 1076.09 527.797 1059.63 527.797H1017.38V710.322C1017.38 763.66 1060.65 806.655 1113.87 806.655C1167.3 806.655 1210.36 763.457 1210.36 710.322C1210.36 710.322 1210.36 383.804 1210.36 220.546C1213.21 220.749 1216.05 220.951 1219.1 220.951C1222.15 220.951 1224.99 220.749 1228.04 220.546V710.322C1228.04 772.989 1177.05 823.893 1114.28 823.893C1051.51 823.893 1000.52 772.989 1000.52 710.322V244.882L975.534 245.288V710.322C975.534 786.983 1037.9 849.244 1114.68 849.244C1191.47 849.244 1253.84 786.983 1253.84 710.322V214.056H1253.43C1283.49 200.874 1304.62 170.858 1304.62 135.976ZM1219.51 195.398C1186.6 195.398 1159.99 168.83 1159.99 135.976C1159.99 103.121 1186.6 76.5535 1219.51 76.5535C1252.41 76.5535 1279.03 103.121 1279.03 135.976C1279.23 168.83 1252.41 195.398 1219.51 195.398Z" fill="white"/>
</svg>