<svg width="288" height="423" viewBox="0 0 288 423" fill="none" xmlns="http://www.w3.org/2000/svg">
<path d="M69.8746 315.244C69.8746 319.493 71.3374 323.083 74.3361 326.014C77.2617 328.944 80.8455 330.482 85.0876 330.482L165.614 330.482L165.614 300.08L85.0145 300.08C80.7724 300.08 77.1886 301.545 74.263 304.548C71.3374 307.479 69.8746 311.069 69.8746 315.244ZM156.472 309.164L156.472 321.325L85.0145 321.325C80.9918 321.325 78.9439 319.274 78.9439 315.244C78.9439 311.215 80.9918 309.164 85.0145 309.164L156.472 309.164Z" fill="white"/>
<path d="M161.299 77.7844C158.446 74.854 154.863 73.3156 150.694 73.3156L85.0876 73.3156C80.8455 73.3156 77.2617 74.7808 74.3361 77.7844C71.4106 80.7148 69.8746 84.3046 69.8746 88.5537L69.8746 103.792L165.614 103.792L165.614 88.5537C165.614 84.3046 164.151 80.7148 161.299 77.7844ZM78.9439 94.6342L78.9439 88.5537C78.9439 84.5244 80.9918 82.4731 85.0145 82.4731L150.62 82.4731C154.497 82.4731 156.472 84.5244 156.472 88.5537L156.472 94.6342L78.9439 94.6342Z" fill="white"/>
<path d="M205.694 157.711C209.79 157.711 213.082 161.008 213.082 165.11C213.082 169.213 209.79 172.51 205.694 172.51L100.227 172.51C91.8164 172.51 84.6488 175.44 78.7245 181.374C72.8002 187.308 69.8746 194.488 69.8746 202.912C69.8746 209.872 71.8494 215.953 75.7258 221.154C71.8494 226.575 69.8746 232.656 69.8746 239.396C69.8746 245.33 71.1911 250.385 73.8973 254.634L85.307 254.634C81.065 250.751 79.0171 245.696 79.0171 239.396C79.0171 231.484 82.4546 225.403 89.4028 221.154C82.4546 216.905 79.0171 210.825 79.0171 202.912C79.0171 196.978 81.065 191.997 85.2339 187.821C89.4028 183.718 94.3763 181.594 100.301 181.594L205.768 181.594C214.91 181.594 222.297 174.195 222.297 165.037C222.297 156.246 215.422 149.066 206.718 148.554L124.217 148.554L124.217 142.18L205.694 142.18C218.201 142.18 228.368 152.363 228.368 164.891C228.368 177.418 218.201 187.601 205.694 187.601L100.227 187.601C95.9854 187.601 92.4016 189.066 89.476 192.07C86.5504 195 85.0145 198.59 85.0145 202.839C85.0145 207.088 86.4773 210.678 89.476 213.608C92.4016 216.539 95.9854 218.077 100.227 218.077L176.292 218.077C178.779 218.077 180.827 216.026 180.827 213.535C180.827 211.044 178.779 208.993 176.292 208.993L100.227 208.993C96.2048 208.993 94.1569 206.942 94.1569 202.912C94.1569 198.883 96.2048 196.832 100.227 196.832L205.768 196.832C223.321 196.832 237.583 182.546 237.583 164.964C237.583 147.674 223.833 133.682 206.718 133.169L115.148 133.169L115.148 157.784L205.694 157.784L205.694 157.711Z" fill="white"/>
<path d="M85.0146 239.301C85.0146 243.55 86.4774 247.139 89.4761 250.07C92.4016 253 95.9855 254.539 100.228 254.539L205.768 254.539C218.274 254.539 228.368 264.649 228.368 277.176C228.368 289.704 218.274 299.813 205.768 299.813L171.904 299.813L171.904 330.216L237.656 330.216C260.403 330.216 278.907 348.678 278.907 371.535C278.907 394.392 260.476 412.854 237.656 412.854L85.3803 412.854C79.3828 412.854 74.3362 410.729 70.1673 406.48C65.9983 402.231 63.8773 397.103 63.8773 391.095C63.8773 385.088 65.9983 380.033 70.1673 375.857C74.3362 371.681 79.456 369.557 85.3803 369.557L158.227 369.557C159.982 369.557 161.445 371.022 161.445 372.78C161.445 374.539 159.982 376.004 158.227 376.004L85.3803 376.004C81.1382 376.004 77.4812 377.469 74.4825 380.326C71.4838 383.257 70.021 386.846 70.021 391.095C70.021 395.344 71.4838 399.007 74.4825 402.084C77.4812 405.161 81.065 406.7 85.3803 406.7L237.51 406.7L237.656 406.7C256.965 406.626 272.617 390.949 272.617 371.608C272.617 352.268 256.965 336.59 237.656 336.517L85.0146 336.517C79.0903 336.517 74.1168 334.319 69.9479 330.143C65.8521 326.04 63.731 320.986 63.731 315.051C63.731 309.117 65.7789 304.136 69.9479 299.96C74.1168 295.857 79.0903 293.733 85.0146 293.733L205.768 293.733C214.544 293.367 222.224 286.114 222.224 277.323C222.224 268.238 214.837 260.839 205.768 260.839C205.768 260.839 76.2379 260.839 76.0916 260.839C73.6048 260.839 71.5569 262.89 71.5569 265.381C71.5569 267.872 73.6048 269.923 76.0916 269.923C76.1647 269.923 205.768 269.923 205.768 269.923C209.79 269.923 213.082 273.22 213.082 277.249C213.082 281.279 209.059 284.575 205.036 284.575L85.0146 284.575C76.6035 284.575 69.4359 287.506 63.5116 293.44C57.5873 299.374 54.6617 306.553 54.6617 314.978C54.6617 323.403 57.6605 330.656 63.6579 336.663C69.6553 342.67 76.7498 345.528 85.0146 345.528L237.656 345.674C251.919 345.674 263.548 357.249 263.548 371.608C263.548 385.967 251.992 397.542 237.656 397.542L85.3803 397.542C81.2845 397.542 79.2366 395.418 79.2366 391.169C79.2366 387.213 81.2845 385.308 85.3803 385.308L158.227 385.161C165.029 385.161 170.588 379.593 170.588 372.78C170.588 365.967 165.029 360.399 158.227 360.399L85.3803 360.399C76.823 360.399 69.5822 363.403 63.6579 369.337C57.6605 375.271 54.6617 382.524 54.6617 391.095C54.6617 399.667 57.6605 406.919 63.5847 413C69.5822 419.081 76.823 422.084 85.3803 422.084L237.656 422.084C265.449 422.011 287.976 399.447 287.976 371.535C287.976 343.623 265.449 321.059 237.656 320.986L237.51 320.986L181.047 320.986L181.047 308.898L205.768 308.898C223.321 308.898 237.51 294.685 237.51 277.103C237.51 259.52 223.321 245.308 205.768 245.308L100.228 245.308C96.2049 245.308 94.157 243.257 94.157 239.227C94.157 235.198 96.2049 233.147 100.228 233.147L176.292 233.147C178.779 233.147 180.827 231.096 180.827 228.605C180.827 226.114 178.779 224.063 176.292 224.063L100.228 224.063C95.9855 224.063 92.4016 225.601 89.4761 228.605C86.5505 231.682 85.0146 235.198 85.0146 239.301Z" fill="white"/>
<path d="M15.5074 30.6782C15.5074 34.9273 16.9702 38.5171 19.9689 41.594C22.8945 44.5976 26.4783 46.136 30.7204 46.136C34.9625 46.136 38.5463 44.5976 41.4719 41.594C44.3974 38.5171 45.9334 34.9273 45.9334 30.6782C45.9334 26.4292 44.4706 22.9127 41.4719 20.0556C38.5463 17.1984 34.9625 15.7332 30.7204 15.7332C26.4783 15.7332 22.8945 17.1984 19.9689 20.0556C16.9702 22.9127 15.5074 26.5024 15.5074 30.6782ZM36.7178 30.6782C36.7178 34.9273 34.6699 36.9786 30.6472 36.9786C26.6246 36.9786 24.5767 34.854 24.5767 30.6782C24.5767 26.7955 26.6246 24.8174 30.6472 24.8174C34.6699 24.8174 36.7178 26.7955 36.7178 30.6782Z" fill="#E91E63"/>
<path d="M30.6454 0.275376C13.7502 0.275376 1.71666e-06 13.975 1.51398e-06 30.9713C1.3113e-06 47.9676 13.6771 61.6672 30.6454 61.6672C43.2254 61.6672 54.05 54.0482 58.7309 43.1325L58.7309 43.279C116.73 43.279 237.703 43.279 237.703 43.279C251.892 43.279 263.375 54.7808 263.375 68.9932C263.375 83.2057 251.892 94.7075 237.703 94.7075L181.02 94.7075L181.02 88.6269C181.02 80.3485 178.021 73.1691 172.024 67.0885C166.026 61.0079 158.932 57.931 150.667 57.931L85.0611 57.931C76.65 57.931 69.4824 60.9346 63.5581 66.9419C57.6338 72.9493 54.7082 80.202 54.7082 88.6269L54.7814 157.931L108.904 157.931L108.904 133.755L69.4092 133.755L69.4092 142.546L99.3964 142.546L99.3964 149.872L63.8507 149.872L63.7775 88.6269C63.7775 82.6928 65.8254 77.7112 69.9944 73.5353C74.1633 69.4328 79.1368 67.3083 85.0611 67.3083L150.667 67.3083C156.591 67.3083 161.565 69.3595 165.734 73.5353C169.903 77.7112 171.951 82.6929 171.951 88.6269L171.951 103.865L237.776 103.865C257.012 103.865 272.517 88.2606 272.517 69.0665C272.517 49.7991 256.939 34.268 237.776 34.268C237.776 34.268 120.022 34.268 61.1445 34.268C61.2176 33.2424 61.2908 32.2167 61.2908 31.1178C61.2908 30.0189 61.2176 28.9933 61.1445 27.8944L237.776 27.8944C260.376 27.8944 278.734 46.2826 278.734 68.92C278.734 91.5573 260.376 109.946 237.776 109.946L69.9212 109.946L70.0675 118.957L237.776 118.957C265.423 118.957 287.877 96.4657 287.877 68.7735C287.877 41.0812 265.423 18.5904 237.776 18.5904L58.804 18.5904L58.804 18.7369C54.05 7.89443 43.2254 0.275376 30.6454 0.275376ZM52.0752 30.9713C52.0752 42.8394 42.494 52.4365 30.6454 52.4365C18.7968 52.4365 9.21556 42.8394 9.21556 30.9713C9.21556 19.1032 18.7968 9.50612 30.6454 9.50612C42.494 9.43286 52.0752 19.1032 52.0752 30.9713Z" fill="white"/>
</svg>
