<svg width="100" height="100" viewBox="0 0 100 100" fill="none" xmlns="http://www.w3.org/2000/svg">
<path d="M45.9655 16.7241H54.0344C54.3911 16.7241 54.7332 16.5824 54.9854 16.3302C55.2376 16.078 55.3793 15.7359 55.3793 15.3793C55.3793 15.0226 55.2376 14.6805 54.9854 14.4283C54.7332 14.1761 54.3911 14.0344 54.0344 14.0344H45.9655C45.6088 14.0344 45.2667 14.1761 45.0145 14.4283C44.7623 14.6805 44.6206 15.0226 44.6206 15.3793C44.6206 15.7359 44.7623 16.078 45.0145 16.3302C45.2667 16.5824 45.6088 16.7241 45.9655 16.7241Z" fill="#E91E63"/>
<path d="M50 75.8965C49.202 75.8965 48.422 76.1331 47.7585 76.5764C47.0951 77.0197 46.578 77.6498 46.2726 78.387C45.9672 79.1242 45.8873 79.9354 46.043 80.7181C46.1987 81.5007 46.5829 82.2195 47.1472 82.7838C47.7114 83.348 48.4303 83.7323 49.2129 83.8879C49.9955 84.0436 50.8067 83.9637 51.5439 83.6583C52.2811 83.353 52.9112 82.8359 53.3545 82.1724C53.7978 81.5089 54.0345 80.7289 54.0345 79.931C54.0345 78.861 53.6094 77.8348 52.8528 77.0782C52.0962 76.3215 51.07 75.8965 50 75.8965ZM50 81.2758C49.734 81.2758 49.474 81.1969 49.2528 81.0492C49.0317 80.9014 48.8593 80.6913 48.7575 80.4456C48.6557 80.1999 48.6291 79.9295 48.681 79.6686C48.7329 79.4077 48.861 79.1681 49.049 78.98C49.2371 78.792 49.4767 78.6639 49.7376 78.612C49.9985 78.5601 50.2689 78.5867 50.5146 78.6885C50.7603 78.7903 50.9704 78.9627 51.1182 79.1838C51.2659 79.405 51.3448 79.665 51.3448 79.931C51.3448 80.2876 51.2031 80.6297 50.9509 80.8819C50.6987 81.1341 50.3566 81.2758 50 81.2758Z" fill="#E91E63"/>
<path d="M58.0689 55.7241H41.9309C40.6671 55.7211 39.4427 56.1643 38.4735 56.9754C37.5043 57.7866 36.8525 58.9137 36.6328 60.1583C36.4131 61.4029 36.6396 62.6851 37.2725 63.7791C37.9054 64.873 38.9041 65.7086 40.0925 66.1385C40.2112 66.1954 40.3377 66.2344 40.4678 66.2541C40.9424 66.3983 41.4349 66.4752 41.9309 66.4828H58.0689C59.4955 66.4828 60.8638 65.916 61.8726 64.9072C62.8814 63.8984 63.4482 62.5301 63.4482 61.1034C63.4482 59.6768 62.8814 58.3085 61.8726 57.2997C60.8638 56.2909 59.4955 55.7241 58.0689 55.7241ZM48.1413 63.7931L50.831 58.4138H53.2033L50.5136 63.7931H48.1413ZM42.762 63.7931L45.4517 58.4138H47.824L45.1343 63.7931H42.762ZM41.9309 58.4138H42.446L40.1181 63.0777C39.717 62.7132 39.4359 62.2358 39.3117 61.7083C39.1875 61.1808 39.2261 60.6281 39.4224 60.123C39.6187 59.6179 39.9636 59.1842 40.4114 58.879C40.8592 58.5739 41.389 58.4117 41.9309 58.4138ZM58.0689 63.7931H53.5207L56.2103 58.4138H58.0689C58.7822 58.4138 59.4663 58.6972 59.9707 59.2016C60.4751 59.706 60.7585 60.3901 60.7585 61.1034C60.7585 61.8168 60.4751 62.5009 59.9707 63.0053C59.4663 63.5097 58.7822 63.7931 58.0689 63.7931Z" fill="#E91E63"/>
<path d="M51.3448 30.1726H55.3793C55.736 30.1726 56.078 30.0309 56.3302 29.7787C56.5825 29.5265 56.7241 29.1844 56.7241 28.8277C56.7241 28.4711 56.5825 28.129 56.3302 27.8768C56.078 27.6246 55.736 27.4829 55.3793 27.4829H51.3448C50.9882 27.4829 50.6461 27.6246 50.3939 27.8768C50.1417 28.129 50 28.4711 50 28.8277C50 29.1844 50.1417 29.5265 50.3939 29.7787C50.6461 30.0309 50.9882 30.1726 51.3448 30.1726Z" fill="#E91E63"/>
<path d="M59.4137 30.1726H62.1034C62.4601 30.1726 62.8021 30.0309 63.0543 29.7787C63.3065 29.5265 63.4482 29.1844 63.4482 28.8277C63.4482 28.4711 63.3065 28.129 63.0543 27.8768C62.8021 27.6246 62.4601 27.4829 62.1034 27.4829H59.4137C59.0571 27.4829 58.715 27.6246 58.4628 27.8768C58.2106 28.129 58.0689 28.4711 58.0689 28.8277C58.0689 29.1844 58.2106 29.5265 58.4628 29.7787C58.715 30.0309 59.0571 30.1726 59.4137 30.1726Z" fill="#E91E63"/>
<path d="M51.3448 35.5517H62.1034C62.4601 35.5517 62.8022 35.41 63.0544 35.1578C63.3066 34.9056 63.4483 34.5636 63.4483 34.2069C63.4483 33.8502 63.3066 33.5082 63.0544 33.256C62.8022 33.0037 62.4601 32.8621 62.1034 32.8621H51.3448C50.9882 32.8621 50.6461 33.0037 50.3939 33.256C50.1417 33.5082 50 33.8502 50 34.2069C50 34.5636 50.1417 34.9056 50.3939 35.1578C50.6461 35.41 50.9882 35.5517 51.3448 35.5517Z" fill="#E91E63"/>
<path d="M12.3448 22.1035H19.069C19.4256 22.1035 19.7677 21.9618 20.0199 21.7096C20.2721 21.4574 20.4138 21.1153 20.4138 20.7586C20.4138 20.402 20.2721 20.0599 20.0199 19.8077C19.7677 19.5555 19.4256 19.4138 19.069 19.4138H12.3448C11.9882 19.4138 11.6461 19.5555 11.3939 19.8077C11.1417 20.0599 11 20.402 11 20.7586C11 21.1153 11.1417 21.4574 11.3939 21.7096C11.6461 21.9618 11.9882 22.1035 12.3448 22.1035Z" fill="#E91E63"/>
<path d="M12.3448 16.7241H19.069C19.4256 16.7241 19.7677 16.5824 20.0199 16.3302C20.2721 16.078 20.4138 15.7359 20.4138 15.3793C20.4138 15.0226 20.2721 14.6805 20.0199 14.4283C19.7677 14.1761 19.4256 14.0344 19.069 14.0344H12.3448C11.9882 14.0344 11.6461 14.1761 11.3939 14.4283C11.1417 14.6805 11 15.0226 11 15.3793C11 15.7359 11.1417 16.078 11.3939 16.3302C11.6461 16.5824 11.9882 16.7241 12.3448 16.7241Z" fill="#E91E63"/>
<path d="M87.6552 39.5862H79.5862C79.2296 39.5863 78.8876 39.728 78.6354 39.9802L73.6501 44.9655H71.5172V16.7241C71.5151 14.9414 70.806 13.2324 69.5454 11.9718C68.2849 10.7113 66.5758 10.0021 64.7931 10H35.2069C33.4242 10.0021 31.7151 10.7113 30.4546 11.9718C29.194 13.2324 28.4849 14.9414 28.4828 16.7241V30.1724H26.3499L21.3646 25.1871C21.1124 24.9349 20.7704 24.7932 20.4138 24.7931H12.3448C11.9882 24.7931 11.6461 24.9348 11.3939 25.187C11.1417 25.4392 11 25.7813 11 26.1379C11 26.4946 11.1417 26.8367 11.3939 27.0889C11.6461 27.3411 11.9882 27.4828 12.3448 27.4828H19.857L24.8423 32.468C25.0945 32.7203 25.4365 32.862 25.7931 32.8621H28.4828V81.2759C28.4849 83.0586 29.194 84.7676 30.4546 86.0282C31.7151 87.2887 33.4242 87.9979 35.2069 88H64.7931C66.5758 87.9979 68.2849 87.2887 69.5454 86.0282C70.806 84.7676 71.5151 83.0586 71.5172 81.2759V47.6552H74.2069C74.5635 47.6551 74.9055 47.5134 75.1577 47.2611L80.143 42.2759H87.6552C88.0118 42.2759 88.3539 42.1342 88.6061 41.882C88.8583 41.6298 89 41.2877 89 40.931C89 40.5744 88.8583 40.2323 88.6061 39.9801C88.3539 39.7279 88.0118 39.5862 87.6552 39.5862ZM35.2069 12.6897H64.7931C65.8631 12.6897 66.8893 13.1147 67.6459 13.8713C68.4025 14.6279 68.8276 15.6541 68.8276 16.7241V18.069H31.1724V16.7241C31.1724 15.6541 31.5975 14.6279 32.3541 13.8713C33.1107 13.1147 34.1369 12.6897 35.2069 12.6897ZM64.7931 85.3103H35.2069C34.1369 85.3103 33.1107 84.8853 32.3541 84.1287C31.5975 83.3721 31.1724 82.3459 31.1724 81.2759V74.5517H68.8276V81.2759C68.8276 82.3459 68.4025 83.3721 67.6459 84.1287C66.8893 84.8853 65.8631 85.3103 64.7931 85.3103ZM68.8276 71.8621H31.1724V32.8621H36.5517V34.2069C36.5517 34.9202 36.8351 35.6044 37.3395 36.1088C37.8439 36.6132 38.528 36.8966 39.2414 36.8966H44.6207C45.334 36.8966 46.0182 36.6132 46.5226 36.1088C47.027 35.6044 47.3103 34.9202 47.3103 34.2069V28.8276C47.3103 28.1142 47.027 27.4301 46.5226 26.9257C46.0182 26.4213 45.334 26.1379 44.6207 26.1379H39.2414C38.528 26.1379 37.8439 26.4213 37.3395 26.9257C36.8351 27.4301 36.5517 28.1142 36.5517 28.8276V30.1724H31.1724V20.7586H68.8276V44.9655H63.4483V43.6207C63.4483 42.9073 63.1649 42.2232 62.6605 41.7188C62.1561 41.2144 61.472 40.931 60.7586 40.931H39.2414C38.528 40.931 37.8439 41.2144 37.3395 41.7188C36.8351 42.2232 36.5517 42.9073 36.5517 43.6207V49C36.5517 49.7133 36.8351 50.3975 37.3395 50.9019C37.8439 51.4063 38.528 51.6897 39.2414 51.6897H60.7586C61.472 51.6897 62.1561 51.4063 62.6605 50.9019C63.1649 50.3975 63.4483 49.7133 63.4483 49V47.6552H68.8276V71.8621ZM39.2414 28.8276H44.6207V34.2069H39.2414V28.8276ZM60.7586 49H39.2414V43.6207H60.7586V49Z" fill="#E91E63"/>
<path d="M87.6552 34.2068H80.9311C80.5744 34.2068 80.2323 34.3485 79.9801 34.6007C79.7279 34.8529 79.5862 35.1949 79.5862 35.5516C79.5862 35.9083 79.7279 36.2503 79.9801 36.5026C80.2323 36.7548 80.5744 36.8964 80.9311 36.8964H87.6552C88.0119 36.8964 88.3539 36.7548 88.6061 36.5026C88.8583 36.2503 89 35.9083 89 35.5516C89 35.1949 88.8583 34.8529 88.6061 34.6007C88.3539 34.3485 88.0119 34.2068 87.6552 34.2068Z" fill="#E91E63"/>
<path d="M80.9311 31.517H87.6552C88.0119 31.517 88.3539 31.3754 88.6061 31.1232C88.8583 30.871 89 30.5289 89 30.1722C89 29.8155 88.8583 29.4735 88.6061 29.2213C88.3539 28.9691 88.0119 28.8274 87.6552 28.8274H80.9311C80.5744 28.8274 80.2323 28.9691 79.9801 29.2213C79.7279 29.4735 79.5862 29.8155 79.5862 30.1722C79.5862 30.5289 79.7279 30.871 79.9801 31.1232C80.2323 31.3754 80.5744 31.517 80.9311 31.517Z" fill="#E91E63"/>
</svg>
