<svg width="100" height="100" viewBox="0 0 100 100" fill="none" xmlns="http://www.w3.org/2000/svg">
<path d="M77.1333 20.6667H69.3673C68.4947 18.518 66.39 17 63.9333 17H36.0667C33.61 17 31.5053 18.518 30.6327 20.6667H22.8667C19.6327 20.6667 17 23.2993 17 26.5333V77.1333C17 80.3673 19.6327 83 22.8667 83H77.1333C80.3673 83 83 80.3673 83 77.1333V26.5333C83 23.2993 80.3673 20.6667 77.1333 20.6667ZM19.9333 26.5333C19.9333 24.9127 21.246 23.6 22.8667 23.6H30.2V28H19.9333V26.5333ZM19.9333 30.9333H30.2V72H19.9333V30.9333ZM22.8667 80.0667C21.246 80.0667 19.9333 78.754 19.9333 77.1333V74.9333H30.2V77.1333C30.2 78.204 30.4933 79.2013 30.992 80.0667H22.8667ZM66.8667 77.1333C66.8667 78.754 65.554 80.0667 63.9333 80.0667H36.0667C34.446 80.0667 33.1333 78.754 33.1333 77.1333V71.2667H66.8667V77.1333ZM66.8667 68.3333H33.1333V27.2667H66.8667V68.3333ZM66.8667 24.3333H33.1333V22.8667C33.1333 21.246 34.446 19.9333 36.0667 19.9333H63.9333C65.554 19.9333 66.8667 21.246 66.8667 22.8667V24.3333ZM80.0667 77.1333C80.0667 78.754 78.754 80.0667 77.1333 80.0667H69.008C69.5067 79.2013 69.8 78.204 69.8 77.1333V74.9333H80.0667V77.1333ZM80.0667 72H69.8V30.9333H80.0667V72ZM80.0667 28H69.8V23.6H77.1333C78.754 23.6 80.0667 24.9127 80.0667 26.5333V28ZM47.8 75.6667C47.8 74.86 48.46 74.2 49.2667 74.2H50.7333C51.54 74.2 52.2 74.86 52.2 75.6667C52.2 76.4733 51.54 77.1333 50.7333 77.1333H49.2667C48.46 77.1333 47.8 76.4733 47.8 75.6667Z" fill="#E91E63"/>
</svg>
